<?xml version="1.0" encoding="utf-8"?>
<!-- Generator: Adobe Illustrator 17.0.0, SVG Export Plug-In . SVG Version: 6.00 Build 0)  -->
<!DOCTYPE svg PUBLIC "-//W3C//DTD SVG 1.1//EN" "http://www.w3.org/Graphics/SVG/1.1/DTD/svg11.dtd">
<svg version="1.1" id="Layer_1" xmlns="http://www.w3.org/2000/svg" xmlns:xlink="http://www.w3.org/1999/xlink" x="0px" y="0px"
	 width="173.62px" height="78.108px" viewBox="-29.397 -13.225 173.62 78.108"
	 enable-background="new -29.397 -13.225 173.62 78.108" xml:space="preserve">
<g>
	<g>
		<path fill="#3E3E3C" d="M70.203,13.125h-2.766l-4.442-13.52h2.727l3.097,10.422l3.078-10.422h2.728L70.203,13.125z"/>
		<path fill="#3E3E3C" d="M84.057,13.125h-2.455v-1.071c-0.779,0.818-1.85,1.286-3.078,1.286c-2.61,0-4.773-2.26-4.773-5.221
			c0-2.981,2.163-5.241,4.773-5.241c1.228,0,2.299,0.468,3.078,1.286V3.092h2.455V13.125z M78.914,5.255
			c-1.422,0-2.571,1.247-2.571,2.883c0,1.597,1.149,2.825,2.571,2.825c1.421,0,2.571-1.266,2.571-2.825
			C81.485,6.541,80.335,5.255,78.914,5.255z"/>
		<path fill="#3E3E3C" d="M101.437,13.125h-2.571V7.261c0-0.585-0.194-1.987-1.87-1.987c-1.149,0-1.948,0.857-1.948,1.987v5.864
			h-2.591V7.261c0-0.585-0.176-1.987-1.87-1.987c-1.13,0-1.928,0.857-1.928,1.987v5.864h-2.591V3.092h2.474v0.974
			c0.623-0.76,1.5-1.227,2.591-1.227c1.247,0,2.299,0.526,3,1.422c0.72-0.877,1.772-1.422,3.058-1.422
			c2.689,0,4.247,1.792,4.247,4.422V13.125z"/>
		<path fill="#3E3E3C" d="M112.859,8.119c0,3-2.279,5.241-5.065,5.241c-2.786,0-5.046-2.24-5.046-5.241s2.26-5.28,5.046-5.28
			C110.58,2.839,112.859,5.118,112.859,8.119z M110.267,8.138c0-1.734-1.11-2.941-2.474-2.941c-1.365,0-2.475,1.207-2.475,2.941
			c0,1.695,1.11,2.864,2.475,2.864C109.157,11.002,110.267,9.833,110.267,8.138z"/>
		<path fill="#3E3E3C" d="M118.316,13.359c-2.553,0-4.442-1.345-4.754-3.507h2.61c0.351,0.857,1.384,1.168,2.144,1.168
			c1.032,0,1.811-0.312,1.811-0.896c0-0.564-0.35-0.798-2.104-1.071c-1.792-0.273-4.188-0.76-4.188-3
			c0-1.578,1.382-3.214,4.286-3.214c2.298,0,4.013,1.247,4.344,3.137h-2.669c-0.156-0.467-0.72-0.838-1.675-0.838
			c-1.189,0-1.676,0.429-1.676,0.799c0,0.526,0.74,0.701,1.987,0.896c2.494,0.409,4.286,0.955,4.286,3.137
			C122.719,11.956,120.888,13.359,118.316,13.359z"/>
	</g>
	<g>
		<path fill="#3E3E3C" d="M82.032,29.399h-6.585v-13.52h6.234c2.708,0,4.072,1.402,4.072,3.662c0,1.13-0.487,2.046-1.325,2.65
			c1.149,0.604,1.85,1.695,1.85,3.234C86.278,27.841,84.643,29.399,82.032,29.399z M78.018,18.216v2.981h3.663
			c0.877,0,1.578-0.604,1.578-1.5s-0.603-1.481-1.578-1.481H78.018z M81.622,23.554h-3.604v3.487h3.663
			c0.993,0,1.968-0.389,1.968-1.714C83.649,24.197,82.928,23.554,81.622,23.554z"/>
		<path fill="#3E3E3C" d="M96.372,29.399h-2.455v-0.916c-0.623,0.721-1.5,1.149-2.551,1.149c-2.377,0-3.955-1.772-3.955-4.402
			v-5.864h2.571v5.864c0,0.564,0.194,1.967,1.87,1.967c1.149,0,1.948-0.857,1.948-1.967v-5.864h2.571V29.399z"/>
		<path fill="#3E3E3C" d="M100.369,25.386c0.331,1.227,1.306,1.988,2.514,1.988c0.857,0,1.695-0.371,2.124-1.169h2.746
			c-0.583,2.045-2.357,3.428-4.851,3.428c-2.825,0-5.143-2.338-5.143-5.24s2.318-5.28,5.143-5.28c2.962,0,5.416,2.299,5.046,6.273
			H100.369z M105.396,23.282c-0.311-1.168-1.286-1.909-2.513-1.909c-1.169,0-2.105,0.741-2.475,1.909H105.396z"/>
		<path fill="#3E3E3C" d="M118.334,29.399h-2.571v-5.864c0-0.585-0.176-1.987-1.87-1.987c-1.149,0-1.948,0.857-1.948,1.987v5.864
			h-2.571V19.366h2.455v0.974c0.642-0.76,1.519-1.227,2.59-1.227c2.358,0,3.916,1.773,3.916,4.422V29.399z"/>
		<path fill="#3E3E3C" d="M129.774,24.392c0,3-2.28,5.24-5.065,5.24c-2.786,0-5.046-2.24-5.046-5.24s2.26-5.28,5.046-5.28
			C127.493,19.113,129.774,21.392,129.774,24.392z M127.182,24.412c0-1.734-1.11-2.941-2.474-2.941
			c-1.365,0-2.475,1.207-2.475,2.941c0,1.695,1.11,2.864,2.475,2.864C126.072,27.275,127.182,26.106,127.182,24.412z"/>
		<path fill="#3E3E3C" d="M135.23,29.632c-2.553,0-4.442-1.344-4.754-3.506h2.61c0.351,0.857,1.384,1.168,2.144,1.168
			c1.032,0,1.811-0.312,1.811-0.896c0-0.564-0.35-0.798-2.104-1.071c-1.792-0.273-4.188-0.76-4.188-3
			c0-1.578,1.382-3.214,4.286-3.214c2.298,0,4.013,1.247,4.344,3.137h-2.669c-0.156-0.467-0.72-0.838-1.675-0.838
			c-1.189,0-1.676,0.429-1.676,0.799c0,0.526,0.74,0.701,1.987,0.896c2.494,0.409,4.286,0.955,4.286,3.137
			C139.633,28.23,137.801,29.632,135.23,29.632z"/>
	</g>
	<g>
		<path fill="#3E3E3C" d="M89.204,42.962l-0.916,2.708h-2.728l4.715-13.521h3.253l4.715,13.521h-2.727l-0.916-2.708H89.204z
			 M91.893,35.013l-1.89,5.553h3.779L91.893,35.013z"/>
		<path fill="#3E3E3C" d="M101.871,34.547h-2.573V32.15h2.573V34.547z M101.871,45.67h-2.573V35.637h2.573V45.67z"/>
		<path fill="#3E3E3C" d="M112.878,40.313h-2.571v-0.507c0-0.585-0.176-1.987-1.87-1.987c-1.149,0-1.948,0.857-1.948,1.987v5.864
			h-2.571V35.637h2.455v0.975c0.642-0.76,1.519-1.227,2.59-1.227c2.358,0,3.916,1.772,3.916,4.422V40.313z"/>
		<path fill="#3E3E3C" d="M116.271,41.658c0.331,1.227,1.306,1.987,2.514,1.987c0.857,0,1.695-0.37,2.124-1.169h2.746
			c-0.583,2.046-2.357,3.428-4.851,3.428c-2.825,0-5.143-2.337-5.143-5.241c0-2.903,2.318-5.278,5.143-5.278
			c2.962,0,5.416,2.298,5.046,6.273H116.271z M121.297,39.553c-0.311-1.169-1.286-1.909-2.513-1.909
			c-1.169,0-2.105,0.74-2.475,1.909H121.297z"/>
		<path fill="#3E3E3C" d="M129.346,45.904c-2.553,0-4.442-1.343-4.754-3.506h2.61c0.351,0.857,1.384,1.169,2.144,1.169
			c1.032,0,1.811-0.312,1.811-0.897c0-0.564-0.35-0.799-2.104-1.071c-1.792-0.272-4.188-0.76-4.188-3
			c0-1.578,1.382-3.214,4.286-3.214c2.298,0,4.013,1.247,4.344,3.136h-2.669c-0.156-0.468-0.72-0.838-1.675-0.838
			c-1.189,0-1.676,0.429-1.676,0.799c0,0.526,0.74,0.701,1.987,0.896c2.494,0.41,4.286,0.955,4.286,3.137
			C133.749,44.501,131.917,45.904,129.346,45.904z"/>
	</g>
	<g>
		<defs>
			<path id="SVGID_1_" d="M48.501-4.741h-0.007c-4.175,0-7.777,2.392-9.535,5.886L24.616,28.855
				c-1.602-2.848-4.156-5.089-7.236-6.291c3.44-2.488,5.678-6.541,5.678-11.117c0-5.3-3.009-9.892-7.412-12.165
				C11.769-2.762,7.34-3.912,2.648-3.912h-21.45c-4.412,0-7.976,3.566-7.976,7.969v39.919c0,4.401,3.564,7.968,7.976,7.968h7.745
				H4.395c4.473,0,8.729-0.924,12.593-2.579l1.469-0.711c0.084-0.039,0.164-0.084,0.242-0.124c1.394,2.309,3.921,3.864,6.825,3.864
				c3.225,0,6.008-1.915,7.26-4.678c0.623-1.46,2.031-2.493,3.698-2.57h24.036c1.666,0.077,3.072,1.11,3.698,2.57
				c1.25,2.764,4.035,4.678,7.26,4.678c4.408,0,7.969-3.572,7.969-7.961c0-1.431-0.367-2.77-1.029-3.922L58.043,1.146
				c-1.761-3.495-5.361-5.886-9.538-5.886H48.501z"/>
		</defs>
		<clipPath id="SVGID_2_">
			<use xlink:href="#SVGID_1_"  overflow="visible"/>
		</clipPath>
		
			<linearGradient id="SVGID_3_" gradientUnits="userSpaceOnUse" x1="-464.4008" y1="320.9173" x2="-464.0647" y2="320.9173" gradientTransform="matrix(0 -107.6116 -107.6116 0 34560.7617 -49926.4102)">
			<stop  offset="0" style="stop-color:#64AAE0"/>
			<stop  offset="0.0507" style="stop-color:#74B2DA"/>
			<stop  offset="0.1498" style="stop-color:#9FC8CC"/>
			<stop  offset="0.2124" style="stop-color:#BDD7C2"/>
			<stop  offset="0.3433" style="stop-color:#DCE4B1"/>
			<stop  offset="0.4164" style="stop-color:#EFECA7"/>
			<stop  offset="0.5355" style="stop-color:#EFE794"/>
			<stop  offset="0.7756" style="stop-color:#EEDA63"/>
			<stop  offset="1" style="stop-color:#EECD30"/>
			<stop  offset="1" style="stop-color:#F1CF31"/>
		</linearGradient>
		<rect x="-26.777" y="-4.741" clip-path="url(#SVGID_2_)" fill="url(#SVGID_3_)" width="106.223" height="57.135"/>
	</g>
</g>
</svg>
