<?xml version="1.0" encoding="utf-8"?>
<!-- Generator: Adobe Illustrator 17.0.0, SVG Export Plug-In . SVG Version: 6.00 Build 0)  -->
<!DOCTYPE svg PUBLIC "-//W3C//DTD SVG 1.1//EN" "http://www.w3.org/Graphics/SVG/1.1/DTD/svg11.dtd">
<svg version="1.1" id="Layer_1" xmlns="http://www.w3.org/2000/svg" xmlns:xlink="http://www.w3.org/1999/xlink" x="0px" y="0px"
	 width="90px" height="89.999px" viewBox="0 0 90 89.999" enable-background="new 0 0 90 89.999" xml:space="preserve">
<g>
	<path fill="#E33F7D" d="M45,1.001c-24.298,0-44.001,19.702-44.001,44c0,24.303,19.703,43.998,44.001,43.998
		c24.299,0,44.001-19.695,44.001-43.998C89.001,20.702,69.299,1.001,45,1.001z"/>
	<g>
		<path fill="#FFFFFF" d="M45,24.387c6.714,0,7.509,0.026,10.161,0.147c2.452,0.112,3.783,0.521,4.669,0.866
			c1.174,0.456,2.011,1.001,2.891,1.881c0.88,0.88,1.425,1.718,1.881,2.891c0.344,0.886,0.754,2.218,0.866,4.669
			c0.121,2.652,0.147,3.447,0.147,10.161s-0.026,7.509-0.147,10.161c-0.112,2.452-0.521,3.783-0.866,4.669
			c-0.456,1.174-1.001,2.011-1.881,2.891c-0.88,0.88-1.718,1.425-2.891,1.881c-0.886,0.344-2.218,0.754-4.669,0.866
			C52.51,65.591,51.715,65.617,45,65.617s-7.51-0.026-10.161-0.147c-2.452-0.112-3.783-0.521-4.669-0.866
			c-1.174-0.456-2.011-1.001-2.891-1.881c-0.88-0.88-1.425-1.718-1.881-2.891c-0.344-0.886-0.754-2.218-0.866-4.669
			c-0.121-2.652-0.147-3.447-0.147-10.161s0.026-7.509,0.147-10.161c0.112-2.452,0.521-3.783,0.866-4.669
			c0.456-1.174,1.001-2.011,1.881-2.891c0.88-0.88,1.718-1.425,2.891-1.881c0.886-0.344,2.218-0.754,4.669-0.866
			C37.491,24.413,38.286,24.387,45,24.387 M45,19.857c-6.829,0-7.685,0.029-10.367,0.151c-2.676,0.122-4.504,0.547-6.104,1.169
			c-1.654,0.643-3.056,1.502-4.454,2.9c-1.398,1.398-2.258,2.8-2.9,4.454c-0.622,1.6-1.047,3.427-1.169,6.104
			c-0.122,2.682-0.151,3.538-0.151,10.367s0.029,7.685,0.151,10.367c0.122,2.676,0.547,4.504,1.169,6.104
			c0.643,1.653,1.502,3.056,2.9,4.454c1.398,1.398,2.8,2.258,4.454,2.9c1.6,0.622,3.427,1.047,6.104,1.169
			c2.682,0.122,3.538,0.151,10.367,0.151s7.685-0.029,10.367-0.151c2.676-0.122,4.504-0.547,6.104-1.169
			c1.654-0.643,3.056-1.502,4.454-2.9s2.258-2.8,2.9-4.454c0.622-1.6,1.047-3.427,1.169-6.104c0.122-2.682,0.151-3.538,0.151-10.367
			s-0.029-7.685-0.151-10.367c-0.122-2.676-0.547-4.504-1.169-6.104c-0.643-1.654-1.502-3.056-2.9-4.454s-2.8-2.258-4.454-2.9
			c-1.6-0.622-3.427-1.047-6.104-1.169C52.685,19.886,51.829,19.857,45,19.857L45,19.857z"/>
		<path fill="#FFFFFF" d="M45,32.09c-7.131,0-12.913,5.781-12.913,12.913c0,7.131,5.781,12.913,12.913,12.913
			s12.913-5.781,12.913-12.913C57.912,37.871,52.131,32.09,45,32.09z M45,53.384c-4.629,0-8.382-3.753-8.382-8.382
			S40.371,36.62,45,36.62s8.382,3.753,8.382,8.382S49.629,53.384,45,53.384z"/>
		<circle fill="#FFFFFF" cx="58.423" cy="31.579" r="3.017"/>
	</g>
</g>
</svg>
